<svg width="11" height="17" viewBox="0 0 11 17" fill="none" xmlns="http://www.w3.org/2000/svg">
<path d="M6.41313 1.19031C6.165 0.290933 4.86812 0.249058 4.58687 1.19031C3.12531 6.12031 0 7.46 0 10.9347C0 14.0109 2.46 16.5 5.5 16.5C8.54 16.5 11 14.0109 11 10.9347C11 7.4425 7.88156 6.14281 6.41313 1.19031ZM5.5 14.5C3.57031 14.5 2 12.9297 2 11C2 10.7237 2.22375 10.5 2.5 10.5C2.77625 10.5 3 10.7237 3 11C3 12.3784 4.12156 13.5 5.5 13.5C5.77625 13.5 6 13.7237 6 14C6 14.2762 5.77625 14.5 5.5 14.5Z" fill="white" fill-opacity="0.75"/>
</svg>
