<svg width="12" height="13" viewBox="0 0 12 13" fill="none" xmlns="http://www.w3.org/2000/svg">
<g clip-path="url(#clip0_52_4)">
<path d="M4.875 2.375C5.56907 2.375 6.24166 2.61566 6.77818 3.05598C7.31469 3.49629 7.68194 4.10901 7.81734 4.78974C7.95275 5.47047 7.84792 6.17709 7.52074 6.7892C7.19356 7.40131 6.66426 7.88104 6.02302 8.14664C5.38179 8.41225 4.6683 8.4473 4.00412 8.24582C3.33994 8.04434 2.76617 7.6188 2.38057 7.0417C1.99497 6.4646 1.8214 5.77166 1.88943 5.08094C1.95746 4.39021 2.26289 3.74445 2.75367 3.25367C3.03159 2.97421 3.36219 2.75265 3.72631 2.60183C4.09044 2.451 4.48087 2.37391 4.875 2.375ZM4.875 0.5C2.1825 0.5 0 2.6825 0 5.375C0 8.0675 2.1825 10.25 4.875 10.25C7.5675 10.25 9.75 8.0675 9.75 5.375C9.75 2.6825 7.5675 0.5 4.875 0.5Z" fill="#CCCCCC"/>
<path d="M11.8336 11.6727L11.1703 12.3359C11.1183 12.3883 11.0564 12.4299 10.9882 12.4582C10.92 12.4866 10.8469 12.5012 10.773 12.5012C10.6992 12.5012 10.6261 12.4866 10.5579 12.4582C10.4897 12.4299 10.4278 12.3883 10.3758 12.3359L8.03906 9.99922C7.98687 9.94685 7.94552 9.8847 7.91737 9.81633C7.88922 9.74797 7.87482 9.67472 7.875 9.60078V9.21875L8.71875 8.375H9.10078C9.17472 8.37482 9.24797 8.38922 9.31633 8.41737C9.3847 8.44552 9.44685 8.48687 9.49922 8.53906L11.8359 10.8758C11.9409 10.982 11.9996 11.1254 11.9991 11.2747C11.9987 11.424 11.9392 11.5671 11.8336 11.6727Z" fill="#CCCCCC"/>
</g>
<defs>
<clipPath id="clip0_52_4">
<rect width="12" height="12" fill="white" transform="translate(0 0.5)"/>
</clipPath>
</defs>
</svg>
