<svg width="21" height="17" viewBox="0 0 21 17" fill="none" xmlns="http://www.w3.org/2000/svg">
<path d="M0 11.2001C0 10.7354 0.385333 10.3501 0.85 10.3501H2.55C3.01467 10.3501 3.4 10.7354 3.4 11.2001C3.4 11.6647 3.01467 12.0501 2.55 12.0501H0.85C0.385333 12.0501 0 11.6647 0 11.2001ZM17.85 12.0501H19.55C20.0147 12.0501 20.4 11.6647 20.4 11.2001C20.4 10.7354 20.0147 10.3501 19.55 10.3501H17.85C17.3853 10.3501 17 10.7354 17 11.2001C17 11.6647 17.3853 12.0501 17.85 12.0501ZM2.992 5.19339L4.19333 6.39473C4.522 6.72339 5.066 6.72339 5.39467 6.39473C5.72333 6.06606 5.72333 5.52206 5.39467 5.19339L4.19333 3.99206C3.86467 3.66339 3.32067 3.66339 2.992 3.99206C2.66333 4.32073 2.652 4.86473 2.992 5.19339ZM16.2067 3.99206L15.0053 5.19339C14.6767 5.52206 14.6767 6.06606 15.0053 6.39473C15.334 6.72339 15.878 6.72339 16.2067 6.39473L17.408 5.19339C17.7367 4.86473 17.7367 4.32073 17.408 3.99206C17.0793 3.65206 16.5353 3.65206 16.2067 3.99206ZM15.8667 11.2001C15.8667 14.3281 13.328 16.8667 10.2 16.8667C7.072 16.8667 4.53333 14.3281 4.53333 11.2001C4.53333 8.07206 7.072 5.53339 10.2 5.53339C13.328 5.53339 15.8667 8.07206 15.8667 11.2001Z" fill="white" fill-opacity="0.75"/>
<line y1="16.5" x2="21" y2="16.5" stroke="white" stroke-opacity="0.75"/>
<path d="M10.3934 4.67913V1.09498L12.3229 2.66084C12.4771 2.78598 12.7301 2.78598 12.8843 2.66084C13.0386 2.5357 13.0386 2.33355 12.8843 2.20841L10.2787 0.0938553C10.1245 -0.0312851 9.87545 -0.0312851 9.72125 0.0938553L7.11565 2.20841C6.96145 2.33355 6.96145 2.5357 7.11565 2.66084C7.26985 2.78598 7.51895 2.78598 7.67315 2.66084L9.60264 1.09498V4.67913C9.60264 4.85561 9.78056 5 9.99802 5C10.2155 5 10.3934 4.85561 10.3934 4.67913Z" fill="white" fill-opacity="0.75"/>
</svg>
