<svg width="22" height="15" viewBox="0 0 22 15" fill="none" xmlns="http://www.w3.org/2000/svg">
<path fill-rule="evenodd" clip-rule="evenodd" d="M17.1485 12.4545C17.2569 12.4704 17.3658 12.4833 17.475 12.493C17.5609 12.5005 17.6426 12.4838 17.7147 12.449C17.9397 12.7808 18.3198 12.9992 18.75 12.9992C18.8881 12.9992 19 13.1111 19 13.2492C19 13.3873 18.8881 13.4992 18.75 13.4992C18.0359 13.4992 17.4203 13.0692 17.1485 12.4545ZM16.0375 12.1777C16.2543 13.496 17.3853 14.4992 18.75 14.4992C20.27 14.4992 21.5 13.2547 21.5 11.7166C21.5 10.7995 21.0699 10.1848 20.5551 9.44913C20.0897 8.78406 19.5552 8.02007 19.2066 6.84437C19.0825 6.39468 18.4341 6.37375 18.2934 6.84437C17.9466 8.0143 17.4124 8.77985 16.9468 9.44707C16.7665 9.70542 16.5965 9.94903 16.4516 10.1957C16.1993 10.0833 15.9644 9.94385 15.7563 9.78047C15.3156 9.4336 14.6875 9.42735 14.25 9.78047C13.0656 10.7305 10.9 10.7305 9.69687 9.7336C9.275 9.3836 8.66563 9.44922 8.2375 9.78985C7.05 10.7305 4.89687 10.7273 3.7 9.73672C3.27813 9.38672 2.65938 9.4586 2.22813 9.79922C1.74375 10.1805 1.10313 10.4273 0.425 10.4992C0.178125 10.5242 0 10.743 0 10.9898V11.9961C0 12.2805 0.2375 12.5211 0.521875 12.4961C1.42188 12.418 2.275 12.1398 3.00312 11.6867C4.76875 12.768 7.28438 12.7523 9.00313 11.6867C10.7688 12.768 13.2844 12.7523 15.0031 11.6867C15.325 11.8829 15.6731 12.0479 16.0375 12.1777ZM15.7563 5.28047C16.25 5.66797 16.8937 5.9211 17.5656 5.9961C17.8187 6.02422 18 6.25547 17.9969 6.50547V7.49297C17.9969 7.77735 17.7594 8.01797 17.475 7.99297C16.5938 7.91485 15.7312 7.63047 15.0031 7.18672C13.2844 8.25235 10.7688 8.26797 9.00313 7.18672C7.28438 8.25235 4.76875 8.26797 3.00312 7.18672C2.275 7.63985 1.42188 7.91797 0.521875 7.9961C0.2375 8.0211 0 7.78047 0 7.4961V6.48985C0 6.24297 0.178125 6.02422 0.425 5.99922C1.10313 5.92735 1.74375 5.68047 2.22813 5.29922C2.65938 4.9586 3.27813 4.88672 3.7 5.23672C4.89687 6.22735 7.05 6.23047 8.2375 5.28985C8.66563 4.94922 9.275 4.8836 9.69687 5.2336C10.9 6.23047 13.0656 6.23047 14.25 5.28047C14.6875 4.92735 15.3156 4.9336 15.7563 5.28047ZM15.7563 0.780471C16.25 1.16797 16.8937 1.41797 17.5656 1.4961C17.8187 1.52422 18 1.75547 17.9969 2.00547V2.99297C17.9969 3.27735 17.7594 3.51797 17.475 3.49297C16.5938 3.41485 15.7312 3.13047 15.0031 2.68672C13.2844 3.75235 10.7688 3.76797 9.00313 2.68672C7.28438 3.75235 4.76875 3.76797 3.00312 2.68672C2.275 3.13985 1.42188 3.41797 0.521875 3.4961C0.2375 3.5211 0 3.28047 0 2.9961V1.98985C0 1.74297 0.178125 1.52422 0.425 1.49922C1.10313 1.42735 1.74375 1.18047 2.22813 0.799221C2.65938 0.458596 3.27813 0.386721 3.7 0.736721C4.89687 1.72735 7.05 1.73047 8.2375 0.789846C8.66563 0.449221 9.275 0.383596 9.69687 0.733596C10.9 1.73047 13.0656 1.73047 14.25 0.780471C14.6875 0.427346 15.3156 0.433596 15.7563 0.780471Z" fill="white" fill-opacity="0.75"/>
</svg>
