<svg width="16" height="16" viewBox="0 0 16 16" fill="none" xmlns="http://www.w3.org/2000/svg">
<g clip-path="url(#clip0_3_1500)">
<path d="M4.89687 8.00003H0.5C0.225 8.00003 0 8.22503 0 8.50003V9.50003C0 9.77503 0.225 10 0.5 10H4.94375C5.44062 10 5.90625 10.3407 5.9875 10.8313C6.09063 11.4563 5.60938 12 5 12C4.55937 12 4.18438 11.7125 4.05 11.3157C3.98438 11.1188 3.78125 11 3.575 11H2.55C2.24375 11 1.99687 11.275 2.05312 11.575C2.32187 12.9532 3.54062 14 4.99687 14C6.78125 14 8.20625 12.4344 7.97188 10.6063C7.78125 9.09378 6.41875 8.00003 4.89687 8.00003ZM0.5 7.00003H11C12.8656 7.00003 14.3375 5.28753 13.9312 3.35316C13.6937 2.22191 12.7781 1.30628 11.6469 1.06878C9.91563 0.70628 8.3625 1.84691 8.05625 3.42816C7.99687 3.72816 8.24687 4.00003 8.55 4.00003H9.575C9.78438 4.00003 9.98438 3.88128 10.05 3.68441C10.1844 3.28753 10.5594 3.00003 11 3.00003C11.6062 3.00003 12.0906 3.54378 11.9875 4.16878C11.9062 4.65941 11.4438 5.00003 10.9438 5.00003H0.5C0.225 5.00003 0 5.22503 0 5.50003V6.50003C0 6.77503 0.225 7.00003 0.5 7.00003ZM12.5 8.00003H7.61562C8.21875 8.51878 8.65312 9.21253 8.85938 10H12.5C13.3281 10 14 10.6719 14 11.5C14 12.3282 13.3281 13 12.5 13C11.9406 13 11.4594 12.6907 11.2 12.2375C11.1094 12.0813 10.9281 12 10.7469 12H9.69063C9.35 12 9.09687 12.3375 9.2125 12.6594C9.76875 14.2407 11.4156 15.3094 13.2563 14.9188C14.5438 14.6469 15.6031 13.6188 15.9031 12.3344C16.4375 10.0469 14.7031 8.00003 12.5 8.00003Z" fill="white" fill-opacity="0.75"/>
</g>
<defs>
<clipPath id="clip0_3_1500">
<rect width="16" height="16" fill="white"/>
</clipPath>
</defs>
</svg>
